<?xml version="1.0"?>
<svg id="logo" xmlns="http://www.w3.org/2000/svg" version="1.1" viewBox="0 0 1258.4 450.2">
  
  <g id="_x33_lG5KB.tif">
    <g>
      <path d="M308.1,82.8v284.9l-17.5,17.6c-.3,0-.5-.5-.5-1.1v-61.6c0-1.2-.5-2-.7-2.8,4.7-5.3,9.6-10.2,15-15.6l-16.3-16.7c.2.2.4.1.5,0,0-.3.3-.5.3-1.1V68c0-1.6.2-2.5.8-3.4,6.1,4.4,13.7,13.4,18.4,18.2h0Z" fill="#f49905"></path>
      <path d="M159,133.4c-4.2,4-7.3,8.8-12.6,12.9,5.5,4.6,9,9.6,13.6,14-.4.7-.8,1.4-.8,2.8v221.1l-18.2-18.3c.3-1.1-.4-1.8-.4-3.3V85.1c-.1,0,16.1-16.3,16.1-16.3,1.6,0,1.6,1.4,1.6,2.9v60.1c0,.8.3,1.3.6,1.7h0Z" fill="#f49905"></path>
      <path d="M123.5,348.3l-21.1-21c.2-.4.5-.8.5-1.7V127.2c0-1.5-.4-2.6-.9-3.5l19.8-19.8c.2.9,1.5,1.5,1.5,2.9v239.1c0,1,1.6,2.1.2,2.4Z" fill="#ef7708"></path>
      <path d="M344.6,119.3v211.8l-19.4,19.3c-.8-1.7-.9-3.5-.1-5.5-.8-2.5-.7-5,0-7.5-.7-2.4-.6-4.7,0-7.1-.7-2.3-.8-4.6,0-7-.7-2.5-.7-5,0-7.5-.7-2.4-.6-4.7,0-7.1-.7-2.3-.8-4.6,0-7-.7-2.5-.7-5,0-7.5-.7-2.4-.6-4.7,0-7.1-.7-2.3-.8-4.6,0-7-.7-2.5-.7-5,0-7.5-.7-2.4-.6-4.7,0-7.1-.7-2.3-.8-4.6,0-7-.7-2.5-.7-5,0-7.5-.7-2.4-.6-4.7,0-7.1-.7-2.3-.8-4.6,0-7-.6-2.4-.8-4.7-.1-7-.6-3.6-.7-7.1,0-10.6-.6-2.4-.6-4.7.1-7-.7-2.3-.8-4.6,0-7-.7-2.5-.7-5,0-7.5-.7-2.4-.6-4.7,0-7.1-.7-2.3-.8-4.6,0-7-.7-2.5-.7-5,0-7.5-.7-2.4-.6-4.7,0-7.1-.7-2.3-.8-4.6,0-7-.7-2.5-.7-5,0-7.5-.7-2.4-.6-4.7,0-7.1-.7-2.3-.8-4.6,0-7-.7-2.5-.7-5,0-7.5-.7-2.4-.6-4.7,0-7.1-.7-2.3-.8-4.6,0-7-.7-2.5-.7-5,0-7.5-.7-2.4-.7-4.7,0-7.1-.6-2-.7-3.8.1-5.4,6.4,6.4,13,12.9,19.4,19.3v1.1Z" fill="#ef7708"></path>
      <path d="M325.2,100c-.8,1.6-.8,3.5-.1,5.4-.7,2.4-.8,4.7,0,7.1-.7,2.5-.7,4.9,0,7.5-.8,2.3-.7,4.6,0,7-.7,2.4-.8,4.7,0,7.1-.7,2.5-.7,4.9,0,7.5-.8,2.3-.7,4.6,0,7-.7,2.4-.8,4.7,0,7.1-.7,2.5-.7,4.9,0,7.5-.8,2.3-.7,4.6,0,7-.7,2.4-.8,4.7,0,7.1-.7,2.5-.7,4.9,0,7.5-.8,2.3-.7,4.6,0,7-.7,2.4-.8,4.7,0,7.1-.7,2.5-.7,4.9,0,7.5-.8,2.3-.7,4.6,0,7-.7,2.4-.7,4.7-.1,7-.7,3.6-.6,7.1,0,10.6-.7,2.4-.5,4.7.1,7-.8,2.3-.7,4.6,0,7-.7,2.4-.8,4.7,0,7.1-.7,2.5-.7,4.9,0,7.5-.8,2.3-.7,4.6,0,7-.7,2.4-.8,4.7,0,7.1-.7,2.5-.7,4.9,0,7.5-.8,2.3-.7,4.6,0,7-.7,2.4-.8,4.7,0,7.1-.7,2.5-.7,4.9,0,7.5-.8,2.3-.7,4.6,0,7-.7,2.4-.8,4.7,0,7.1-.7,2.5-.7,4.9,0,7.5-.8,2.3-.7,4.6,0,7-.7,2.4-.8,4.7,0,7.1-.6,2.5-.7,4.9,0,7.5-.7,2-.7,3.8.1,5.5l-17.1,17.2V82.8l17.1,17.2Z" fill="#f18906"></path>
      <path d="M141.1,365.8l-17.6-17.6c1.4-.3,0-1.4,0-2.4V106.7c0-1.4-1.4-2-1.6-2.9l18.8-18.8v277.4c.1,1.5.8,2.3.5,3.3h0Z" fill="#f18906"></path>
      <path d="M289.7,64.6c-.6.9-.8,1.8-.8,3.4v218.3c0,.6-.2.8-.3,1.1s-.3.2-.5,0l-11.5-10.6c-2.4-2.2-4.1-5.4-7.1-7.1-.2-.5-.4-1.3-.8-1.7.3-.2.5-.7.5-1.6V45.5c0-.7.6-1.1.8-.8,6.5,7,14.2,12.5,19.6,19.9h0Z" fill="#f6a804"></path>
      <path d="M176.3,175.7c1.3,1.2,2.3,3.1,3.6,4.4-.3.2-.5.4-.5,1.3v218.3c-.2,1.9-.3,3-.1,4.4l-19.9-19.9v-221.1c0-1.4.3-2,.8-2.8l16.3,15.4h-.2Z" fill="#f6a804"></path>
      <path d="M182.6,182.2c2.3,2.7,5,5,7.5,7.5s4.6,5.2,7.4,7.1l1.1,2.1c-1,.3-1,.9-1,2.3v218.8c0,1.1,1.2,2.1,0,2.4l-18.5-18.4c-.2-1.4-.1-2.5.1-4.4v-218.3c0-.8.2-1.1.5-1.3.7.8,1.9,1.3,2.7,2.1h.2Z" fill="#f9ba03"></path>
      <path d="M204.3,203.6c2.7,2.9,6,5.6,8.6,8.5l3.5,4,.2,174.4c0,.6.2.7.3.8l-3.7,4.5v41c0,.4-.3.6-.5.7-5.9-4.5-10.2-10.2-15-15,1.1-.3,0-1.3,0-2.4v-218.8c0-1.4,0-2,1-2.3,1.8,1.5,4,3,5.6,4.8v-.2Z" fill="#fccc01"></path>
      <path d="M102.5,327.2l-21.9-22c.2.1.4.1.5-.3l-.3-160.3,21.2-21.1c.5.9.9,2,.9,3.5v198.3c0,1-.2,1.3-.4,1.7v.2Z" fill="#ed6709"></path>
      <path d="M270.1,44.7c-.3-.2-.8,0-.8.8v220.9c0,.9-.2,1.4-.6,1.6-2.3-2.1-4.8-4.1-7-6.2s-5.2-6.4-8.7-8.6l-1.8-2.7c.5-.7.7-1.4.7-2.8V30.4c.2-1.6.3-2.4.2-3.4,6.3,5.8,12.2,11.7,17.9,17.7h.1Z" fill="#f9ba03"></path>
      <path d="M80.6,305.3l-30.1-30c1,0,1.9-.3,1.9-1.8v-93.9c0-2-1.3-3-2.6-3.8l31-31.1.3,160.3c0,.4-.3.4-.5.3Z" fill="#ea540a"></path>
      <path d="M363.9,138.6c-.2.8.2,1.4.2,2.6v168.2c0,.7.1,1.1.3,1.2s.7,0,.9,0l-20.8,20.5V119.3l19.4,19.3Z" fill="#ed6709"></path>
      <path d="M252.2,27c0,1,0,1.9-.2,3.4v217.2c0,1.4-.2,2.1-.7,2.8-2.1-1.8-4.6-3.5-6.4-5.5s-4.5-5.5-7.4-7.5c-1.1-.8-1.9-2.9-3.2-3.7-.4-1.1-.1-2,.7-3.4V63.7c0-1.9-.4-3-1.4-3.9,2.2-1.8,3.7-5.6,3.7-8.5V14.7c0-1-.6-2.1.6-2.1,5.6,4.4,9.5,10,14.4,14.5h-.1Z" fill="#fccc01"></path>
      <path d="M384.8,159.5c-.5.7-1,1.2-1.5,2.4v127.6c0,1.1.5,1.8,1.2,1.7l-19.2,19.3h-.9c-.2,0-.3-.5-.3-1.2v-168.2c0-1.2-.4-1.8-.2-2.6,7.1,7.1,14.4,13.6,20.9,20.9h0Z" fill="#eb5a0a"></path>
      <path d="M50.4,275.3L0,225.2l49.8-49.4c1.3.8,2.6,1.8,2.6,3.8v93.9c0,1.5-.9,1.9-1.9,1.8h0Z" fill="#e7420c"></path>
      <path d="M1040.3,338.2l-.2,35.5h-12l-.2-36.6c0-3.1-.8-6.7-3.3-8.7-4.6-3.7-12-3-16,1.4-2.9,3.1-3.9,7.2-3.9,11.4v32.6h-12.1v-55.5h11.6l.4,7.6c4.7-8.5,15.5-10.5,24.1-7.8s6.8,4.1,9,8c6.1-10.9,22.7-11.4,30.8-5.2,4.4,3.4,6.8,8.7,6.8,14.5v38.5h-11.9l-.2-35.8c0-3.6-.9-7.5-3.8-9.8-4.3-3.3-10.8-2.7-14.9.8-2.5,2.2-4.1,5.5-4.1,9.2h-.1Z" fill="#042e6b"></path>
      <path d="M406.3,180.7c-3.3.8-2.1,3-2.1,8.3v78.6c-.1,1.6,0,2.7.6,3.7-6.1,7.7-13.7,13.5-20.2,20-.7,0-1.2-.6-1.2-1.7v-127.6c.4-1.2,1-1.7,1.5-2.4,6.7,7.6,15.4,13.3,21.4,21.2h0Z" fill="#e94e0b"></path>
      <path d="M404.7,271.3c-.6-1.1-.8-2.1-.7-3.7v-78.6c.1-5.3-1.1-7.5,2.3-8.3,7,6.2,13.1,12.8,19.7,19.4l25.2,25.1-25.2,25.1c-7.2,7.2-13.9,14.4-21.2,21h0Z" fill="#e7420c"></path>
      <path d="M584.6,340.3l-28.7.2v23.3l32,.3v9.9h-44.4v-75.2h43.4c.3,3.4.2,6.6,0,10h-31v21.6h28.5v10.1c0,0,.2-.2.2-.2Z" fill="#06306c"></path>
      <path d="M578.8,149c-11.6,6.3-27.2,4.3-39.2-.2l2.5-10.2c8.4,3.6,23.4,6.9,30.9,1.3s3.7-5.2,3.5-8.5c-.6-10.4-17.9-11.9-28.3-19.8s-8.5-10.3-8-17.2c.9-11.3,10.6-18.1,21.3-19s15.8.2,23.4,2.6l-2.4,9.9c-7.9-2.6-27.2-6.3-29.8,4.8-4.1,18.1,36.4,12.1,36.1,38.9,0,7.3-3.6,13.7-10,17.3h0Z" fill="#042e6b"></path>
      <path d="M238.9,370.1c.4.6.9,1.2.9,2.3v61.2c0,.8,0,1.4.4,1.8-5.2,4.3-8.9,11.3-14.7,14.9-4.9-2.9-8.3-9.4-12.8-12.8.1,0,.5-.2.5-.7v-41l3.7-4.5c3.6-4.4,8.4-8.1,12.3-12.4s6.2-4.8,8.2-8.1l1.5-.7h0Z" fill="#fdda00"></path>
      <path d="M776.6,262.4c-6.8-2.7-10.2-8.8-10.1-15.7.3-18,21.9-18.7,35.2-18.8,1.2-6.6-3-12-9.6-12.6s-11.6.6-17.3,2.8c-1-2.9-1.8-5.7-2.5-8.9,8.9-3.1,18.2-4.3,27.2-2.1,8.4,2,14.3,8.4,14.3,17.2v27.3c.2,4,.5,7.6,1,11.3h-10.5l-1.6-7.1c-5.5,8.4-17.3,10.3-26.3,6.7h.2ZM799.8,248.9c2.5-4.1,2.4-8.4,2.1-13-7.2-.3-22.5.1-23.5,9.1s.4,7.3,3.8,8.9c6,3,14.1.8,17.7-5.1h0Z" fill="#042e6b"></path>
      <path d="M849.1,373.6c-6.9-2.5-10.4-8.7-10.4-15.7.2-18,21.5-18.8,35.2-18.9,1.2-6.4-2.8-12-9.5-12.6-6-.6-11.7.6-17.5,2.8l-2.4-8.9c8.7-3,17.8-4.2,26.7-2.3,8.8,1.9,14.8,8.4,14.9,17.5l.2,26.8c0,4,.4,7.7.8,11.6h-10.5l-1.5-7.4c-5.4,8.6-16.7,10.5-26,7.1ZM872,359.7c2.4-4.2,2.3-8.5,2-12.8-6.7-.4-21.8.2-23.3,8.2s0,7.8,3.3,9.7c6.1,3.3,14.5,1.1,18.1-5.1h0Z" fill="#042e6b"></path>
      <path d="M651.2,136.5c-5,14.1-19.3,18.8-32.8,15.7s-22.7-25.2-17.4-40.7,22-19.5,35.7-14.8,19.6,25.8,14.6,39.9h0ZM639.3,135c2.6-7.1,2.6-15,0-21.9s-7.2-9-13.3-9-10.7,2.9-12.9,8.4-2.9,15.5,0,22.6,7.2,8.8,13.1,8.8,11-3,13.2-9h0Z" fill="#042e6b"></path>
      <path d="M1023.9,254.5c6.5,1.1,12.6,0,18.9-1.7.8,2.8,1.2,5.7,1.7,8.9-8.6,2.6-17.9,3.5-26.6,1.2-18.1-4.6-23.4-23.3-18.3-39.3,3.8-11.7,14.3-18.2,26.4-17.7s18.8,6.5,21.4,16.8c1.3,5.1,1.6,10.4,1.2,15.8h-38.8c.3,8.3,6,14.6,14.2,16h0ZM1037.3,229.6c.3-5.1-1.3-10.1-5.6-12.9s-11.5-2.7-16.2.8c-3.5,3.2-5.5,7.3-5.9,12.2h27.7Z" fill="#042e6b"></path>
      <path d="M697.6,254.5c6.5,1.1,12.5,0,18.8-1.8.6,2.9,1.3,5.7,1.5,8.9-8.7,2.5-17.8,3.4-26.5,1.2-18.3-4.6-23.5-23.5-18.3-39.4s14.4-18.1,26.5-17.5,18.7,6.7,21.2,16.9,1.6,10.3,1.2,15.7h-38.8c0,8.3,6,14.7,14.3,16.1h0ZM710.9,229.6c.2-5.1-1.3-10-5.5-12.8s-12.2-2.9-16.7,1.1-5.1,7.2-5.4,11.7h27.6Z" fill="#042e6b"></path>
      <path d="M726.8,365.5c6.6,1.1,12.8,0,19-1.8l1.5,8.9c-17.2,5.3-39.8,3.1-45.3-17-2-7.2-1.7-14.7.7-21.7,4-11.4,14.6-17.7,26.6-17s17.7,6,20.6,15.5c1.7,5.5,2.1,11.2,1.6,17h-38.8c0,8,5.8,14.6,14.1,16h0ZM740.1,340.7c.5-5.2-1.4-10.2-5.7-13.2-5-2.9-11.2-2.5-15.8.9-3.6,3.1-5.6,7.3-6,12.3h27.6,0Z" fill="#042e6b"></path>
      <path d="M1112.6,365.6c6.5,1,12.5-.2,18.5-1.9l1.5,8.9c-17.3,5.4-40.3,2.9-45.5-17.4-1.8-7.1-1.5-14.4.9-21.3,3.9-11.3,14.2-17.5,26-17s18.4,6.1,21.3,16c1.5,5.4,1.9,11.1,1.4,16.6h-38.8c.5,8.7,6.4,14.8,14.7,16.1h0ZM1125.6,340.7c.2-4.9-1.2-9.9-5.3-12.7-5.2-3.7-12.5-3-17.3,1.2-3.1,3.2-4.7,7-5.2,11.6h27.8Z" fill="#042e6b"></path>
      <path d="M617.1,330.4c-3,3.4-4,7.6-4,11.9v31.5h-12.1v-55.5h11.6c.6,2.4-.4,4.4.6,7.1,4-6.2,10.6-8.4,17.6-8.5,11,0,19.7,7.7,19.7,19v37.9h-11.9l-.2-35.2c0-3.7-.9-7.8-4-10.1-5-3.9-12.9-3-17.2,1.9h0Z" fill="#06306c"></path>
      <path d="M946.6,329.3c-3.5,3.1-5,7.5-5,11.9l-.2,32.5h-12v-55.5h11.6c.6,2.3-.3,4.5.6,7,5.1-7.6,14.7-9.6,23-7.7s14.1,8.8,14.2,17.3v38.9c0,0-11.9,0-11.9,0l-.3-35.8c0-3.7-1.1-7.6-4.2-9.8-4.6-3.3-11.5-2.8-15.9,1.1h.1Z" fill="#042e6b"></path>
      <path d="M588.8,218.3c-3.6,3.2-5,7.7-5,12.3l-.2,32.2h-12v-55.6h11.6l.4,7.4c5.3-8.4,16.7-10.4,25.5-7.3s11.9,9.1,11.9,16.9l.2,38.6h-12l-.2-35.4c0-3.9-1.1-8-4.4-10.3s-11.4-2.7-15.7,1.2h0Z" fill="#042e6b"></path>
      <path d="M1164.5,330c-3.1,3.3-4.3,7.5-4.3,11.7l-.2,32.1h-12v-55.5h11.6l.4,7.3c5.4-8.7,17.7-10.7,26.6-6.9,6.8,2.9,10.8,9.6,10.8,17.1v37.9h-11.9l-.2-35.4c0-3.7-1-7.8-4.1-10-4.9-3.6-12.4-2.8-16.7,1.7h0Z" fill="#042e6b"></path>
      <polygon points="777.3 96.3 747.1 172.2 734.5 172.2 743.3 150.6 721.5 96.2 734.6 96.2 749.7 137.1 764.7 96.2 777.3 96.3" fill="#042e6b"></polygon>
      <path d="M681.6,107.5c-3.7,3.4-4.8,8.1-4.8,12.7v31.5h-12.1v-55.4h11.5l.6,7.2c5.4-8.4,17-10.4,25.7-7.1s11.6,9,11.6,16.6l.2,38.7h-12.1l-.2-35.5c0-3.7-1.1-7.7-4.2-10-4.7-3.4-11.8-2.9-16.2,1.2h0Z" fill="#042e6b"></path>
      <path d="M237.9,12.5c-1.2,0-.6,1.2-.6,2.1v36.6c0,2.9-1.5,6.7-3.7,8.5-4.3,3.6-7.7,8.1-11.8,11.8l-7.5,6.9c-.3,0-.6.3-1.1,0V19.6c-1-2.8,0-4.3-1.2-5.9L225.4,0c5.2,3.4,8,9.1,12.4,12.5h.1Z" fill="#fdda00"></path>
      <path d="M196.6,96.4c-2.4,1.5-3.8,4.6-5.9,6.3s-5.2,4.8-7.5,7.6-4.7,3.8-6.6,5.8c-.2,0-.4-.5-.4-1v-60.5c0-1.5-.9-2.6-1.7-3.4,6.9-6.9,12.9-14.6,20.5-20.3,0,1,0,2,.5,3.3v61.5c0,.7.8.7,1.1.7h0Z" fill="#f9ba03"></path>
      <polygon points="981.6 207.3 994.4 207.3 973.6 262.7 959.3 262.8 938.7 207.3 951.8 207.3 966.7 252 981.6 207.3" fill="#042e6b"></polygon>
      <path d="M214.3,78.5l-1.1,1.7c-3.4,2.3-5.9,5.7-8.7,8.6s-5.4,4.2-7.2,7.1-.5.3-.7.4c-.3,0-1.1,0-1.1-.7v-61.5c-.4-1.3-.5-2.3-.5-3.3-2.4,1.8,16.9-17.9,17.1-17.2,1.2,1.6.2,3.1,1.2,5.9v58.8c.5.3.8,0,1.1,0v.2Z" fill="#fccc01"></path>
      <path d="M176.5,116c-.2.2-.4.9-.4,1.2l-17.1,16.1c-.3-.4-.6-.8-.6-1.7v-60.1c0-1.5,0-2.8-1.5-2.9l17.6-17.6c.8.8,1.6,1.9,1.6,3.4v60.5c0,.5.2,1,.4,1h0Z" fill="#f6a804"></path>
      <path d="M663.8,254v8.8c-4.6.7-9.2.9-14,.4-6.2-.7-10-5.2-10-11.5l-.2-35.2-9.1-.2c-.3-2.9,0-5.8,0-9l9.2-.3.2-14.2h11.8l.2,14.3,12,.2c.4,2.8.2,5.7,0,9l-12.2.3v32.7c0,2.9,1.8,4.8,4.5,5s4.8,0,7.5-.2h0Z" fill="#06306c"></path>
      <path d="M906.5,253.9c.4,2.8,0,5.4.2,8.7-4.7.9-9.6,1.1-14.4.4s-9.6-5.1-9.7-11.1l-.3-35.4-9.1-.2c-.3-2.9,0-5.9,0-9l9.3-.3v-14.2h11.9l.3,14.3,12,.2c.3,2.9.2,5.9,0,9l-12.2.3v32.8c0,2.8,1.9,4.8,4.5,4.9s4.6.1,7.5-.3h0Z" fill="#06306c"></path>
      <path d="M289.4,319.7c.1.8.6,1.6.6,2.8v61.6c0,.6.2,1,.5,1.1l-16.7,16.7c-.3.2-.8-.1-.8-.7v-62.1c0-1-.5-1.9-1-2.2-1.8,1.2,6.9-6.8,5.1-6.5-2.4,3.6,15.8-14.7,12.3-10.8h0Z" fill="#f6a804"></path>
      <path d="M831.3,365l.2,8.7c-5,.8-10.1,1.2-15.1.2-7.9-1.5-9.1-8-9.1-15v-31.5l-9.2-.2c-.2-3.1,0-5.9,0-8.9l9.1-.2v-14.3h12c0-.1.3,14.3.3,14.3h12c.3,3.1,0,6.1,0,9.1h-12.2v33.2c0,2.7,1.7,4.5,4.2,4.7s4.7,0,7.7-.2h0Z" fill="#042e6b"></path>
      <path d="M693,365v8.7c-4.5.8-9.2,1-13.9.4s-10-5.3-10-11.6l-.2-35.1-9.2-.2c-.3-3,0-5.9,0-8.9l9.2-.3v-14.2h12l.3,14.4,12,.2c.2,3,.2,5.8,0,9h-12.1v33.2c0,2.7,1.7,4.5,4.2,4.7s4.7.1,7.7-.3h0Z" fill="#042e6b"></path>
      <path d="M1239.9,365c.8,2.8.5,5.8.2,8.8-4.7.6-9.3.9-13.9.4-6.2-.8-10-5.2-10-11.5l-.2-35.1-9.2-.2c0-3.1-.2-5.9,0-8.9h9.1c0-.1.3-14.5.3-14.5h11.8l.2,14.4,12.1.2c.3,3,.3,5.8,0,8.9h-12.2c0,.1,0,32.1,0,32.1,0,1.9.4,4.5,2.2,5.2,2.9,1.3,5.8.7,9.5.4v-.2Z" fill="#042e6b"></path>
      <path d="M257.2,418.6c-5.8,5.8-10.9,11.8-17,16.7-.4-.4-.4-.9-.4-1.8v-61.2c0-1.1-.4-1.8-.9-2.3,2-2.3,3.9-4.8,6-6.9s6.3-5.1,8.5-8.5c.5-.4,1.4-.6,1.9-1.2.5-.1,1.2.8,1.2,1.7v61.1c0,1-.5,2.3.7,2.2v.2Z" fill="#fccc01"></path>
      <path d="M273.9,401.9l-16.6,16.7c-1.2,0-.7-1.2-.7-2.2v-61.1c0-.9-.6-1.8-1.2-1.7l6.7-7.5c2.3-2.6,4.9-5.8,7.6-7.6l2.3-1.5c.5.3,1,1.2,1,2.2v62.1c0,.6.5.9.8.7h.1Z" fill="#f9ba03"></path>
      <path d="M838.7,244.6c4.3,10.6,16.1,12.4,26.1,8.4.8,3,1.6,5.8,1.9,9.1-15.7,5-34.9,1.1-40.3-16.3s1.4-34.7,19.4-38.9c6.9-1.6,14-1.2,21,.9-.5,3.2-1.3,6-2.2,9.2-9.8-3.9-21.3-2.2-25.7,8.2s-2.7,13.1,0,19.4h-.1Z" fill="#042e6b"></path>
      <polygon points="555.9 262.7 543.5 262.8 543.5 187.7 555.9 187.6 555.9 262.7" fill="#06306c"></polygon>
      <path d="M745.4,231.4v31.4h-12.1v-55.5c4-.2,7.9-.3,11.7,0,.3,2.4-.4,4.4.5,6.8,3.4-7.4,10.8-9,18.3-7.9l-.5,9.1c-6.6-.8-13.2,0-16,7.1s-1.8,5.7-1.9,9h0Z" fill="#042e6b"></path>
      <path d="M774.8,342.5v31.2h-12.1v-55.5h11.6l.4,7c3.7-7.4,11.1-9.3,18.6-7.9-.3,3.2,0,6.1-.8,9.1-5-.8-10.3-.5-13.7,3.5-2.8,3.3-3.9,7.8-4,12.5h0Z" fill="#06306c"></path>
      <polygon points="930 262.8 917.9 262.8 917.9 207.3 929.9 207.3 930 262.8" fill="#06306c"></polygon>
      <polygon points="913.2 373.8 901.2 373.8 901.2 318.3 913.2 318.3 913.2 373.8" fill="#042e6b"></polygon>
      <polygon points="930.2 196.9 918 197.1 917.9 185.9 930.2 185.9 930.2 196.9" fill="#06306c"></polygon>
      <polygon points="913.5 307.9 901.2 308 901.1 297 913.3 296.9 913.5 307.9" fill="#042e6b"></polygon>
      <path d="M288.2,287.4l16.3,16.7c-5.5,5.5-10.4,10.3-15,15.6,3.5-3.9-14.7,14.4-12.3,10.8-.6-.7-.5-1.5-.5-2.7v-51c.1,0,11.6,10.6,11.6,10.6h-.1Z" fill="#e71610"></path>
      <path d="M176.3,175.7l-16.3-15.4c-4.6-4.4-8.1-9.3-13.6-14,5.3-4.1,8.4-9,12.6-12.9l17.1-16.1c1.2,2.7.3,6,.3,9.1v45.6c0,1.4.8,2.8,0,3.8h-.1Z" fill="#e71610"></path>
      <path d="M268.7,268c.5.4.6,1.2.8,1.7-.4,0-.6.5-.6,1.2v65.5c0,1,.3,1.7.7,2.1-2.7,1.8-5.3,5-7.6,7.6-.5-.3-.7-1-.7-1.9v-79.7c0-1.2.2-1.9.3-2.7,2.2,2.2,4.7,4.2,7,6.2h.1Z" fill="#e94e0b"></path>
      <path d="M276.7,276.8v51c-.1,1.1-.1,2,.4,2.7,1.8-.3-6.9,7.7-5.1,6.5l-2.3,1.5c-.4-.5-.7-1.1-.7-2.1v-65.5c0-.7.2-1.1.6-1.2,3,1.6,4.7,4.8,7.1,7.1Z" fill="#e7420c"></path>
      <path d="M182.6,182.2c-.7-.9-1.9-1.4-2.7-2.1-1.3-1.3-2.2-3.1-3.6-4.4.9-1,0-2.4,0-3.8v-45.6c0-3.1,1-6.4-.3-9.1,0-.3.2-1,.4-1.2,2-2,4.9-3.7,6.6-5.8.4,0,.5.5.5,1.2v69.7c0,.6,0,.9-.3,1.1s-.6,0-.8,0h.2Z" fill="#e7420c"></path>
      <path d="M204.3,203.6c-1.6-1.7-3.8-3.3-5.6-4.8l-1.1-2.1.2-98.8c0-1-.3-1.5-.5-2,1.8-2.9,4.9-4.8,7.2-7.1.5.9.6,1.8.6,3.2v109.9c0,.8-.4,1.7-.8,1.6h0Z" fill="#ef7708"></path>
      <path d="M197.5,196.8c-2.9-1.9-5-4.7-7.4-7.1.2,0,.6.2.8,0s.2-.5.2-1.2l-.4-86c2.1-1.7,3.5-4.7,5.9-6.3s.6-.2.7-.4c.2.5.5,1,.5,2l-.2,98.8v.2Z" fill="#ed6709"></path>
      <path d="M190.1,189.7c-2.5-2.5-5.2-4.8-7.5-7.5.2,0,.6.2.8,0,.3-.2.3-.5.3-1.1v-69.7c0-.7-.1-1-.5-1.2,2.3-2.7,4.7-5.3,7.5-7.6l.4,86c0,.7.2,1-.2,1.2s-.6,0-.8,0h0Z" fill="#e94e0b"></path>
      <path d="M233.6,59.7c1.1,1,1.4,2,1.4,3.9v166.7c-.9,1.4-1.1,2.3-.7,3.4-1.9-1.2-3-3.7-5.7-4.5v147.8c0,1,.2,1.5.6,1.8-3.9,4.3-8.7,8-12.3,12.4-.2,0-.3-.2-.3-.8l-.2-174.4,5.1,4.6c.9-1.3.8-2.8.8-4.7V76c0-1.9,0-3.1-.5-4.5,4.1-3.8,7.5-8.3,11.8-11.8h0Z" fill="#f9ba03"></path>
      <path d="M221.8,71.6c.5,1.4.5,2.6.5,4.5v139.9c0,1.9,0,3.3-.8,4.7l-5.1-4.6-3.5-4c.9-1,1-2.4,1-4.2v-124.9l-.8-2.8,1.1-1.7,7.5-6.9h.1Z" fill="#f6a804"></path>
      <path d="M212.9,212.1c-2.6-2.9-5.9-5.5-8.6-8.5.4,0,.7-.8.7-1.6v-109.9c0-1.5-.1-2.3-.6-3.2,2.8-2.9,5.3-6.3,8.7-8.6l.7,2.8v124.9c0,1.8-.1,3.1-1,4.2h.1Z" fill="#f18906"></path>
      <path d="M251.3,250.5l1.8,2.7c-.2.6-.6,1.1-.6,2.2v97.6c.3,1,.4,1.5,1,1.7-2.1,3.4-5.7,5.7-8.5,8.5-.2-.4-.6-.7-.6-1.6v-115.8c.1-.5.3-.7.5-.7,1.9,2,4.3,3.7,6.4,5.5h0Z" fill="#ef7708"></path>
      <path d="M261.7,261.8c-.1.8-.3,1.6-.3,2.7v79.7c0,.9.2,1.6.7,1.9l-6.7,7.5c-.5.5-1.4.7-1.9,1.2-.6-.2-.7-.8-1-1.7v-97.6c0-1,.4-1.6.6-2.2,3.5,2.2,5.8,5.8,8.7,8.6h-.1Z" fill="#eb5a0a"></path>
      <path d="M234.3,233.8c1.3.8,2.1,2.9,3.2,3.7-.3.4-.6.8-.6,1.7v129.8c0,.9.3,1.3.6,1.7-2,3.3-5.7,5.3-8.2,8.1-.4-.3-.7-.8-.7-1.8v-147.8c2.7.9,3.7,3.3,5.7,4.5h0Z" fill="#f6a804"></path>
      <path d="M244.9,245c-.2,0-.4.2-.5.7v115.8c0,.9.4,1.2.6,1.6-2.1,2.1-4.1,4.7-6,6.9l-1.5.7c-.3-.4-.6-.8-.6-1.7v-129.8c0-1,.3-1.3.6-1.7,3,2,5.1,5,7.4,7.5Z" fill="#f18906"></path>
    </g>
  </g>
</svg>