<?xml version="1.0"?>
<svg id="Layer_1" xmlns="http://www.w3.org/2000/svg" version="1.1" viewBox="0 0 762.4 235.2">

  <defs>

  </defs>
  <path fill-rule="evenodd" class="st1" d="M117.1,176.1h-40.8c0,.1-.2-66-.2-66,0-5-1.2-10.1-4.6-13.7s-12.2-5.5-18.7-2.5-9.2,8.6-9.2,15.6l-.4,66.8H2.4c0,0,0-177.4,0-177.4h40.7s.3,72.1.3,72.1c11.5-14.1,28.4-17.3,44.5-13.8,20.9,4.4,29.1,24.8,29.1,44.3v74.8Z"></path>
  <path fill-rule="evenodd" class="st1" d="M613,176.3l-1.3-12.5c-7.1,9.6-16.7,14.5-27.7,15.9-20.9,2.5-40.1-7-50.6-25.2-13.7-23.9-12.1-59.4,6.6-80.8,18.9-21.6,53.5-25.5,71.7-1.7l1.2-12.5h38.1c0,0,0,116.7,0,116.7h-38Z"></path>
  <path fill-rule="evenodd" class="st1" d="M335.1,184.4c-9,22.2-20.9,45.4-46.6,48.7s-26.3.3-39-5.2l11.2-32.5c11.2,2.4,22.3,3.2,29.1-7.1s6.3-12.2,9.1-19.3l-45.2-109.6h42.9c0,0,24,67.6,24,67.6l21.7-67.5h43.3c0,0-50.4,124.9-50.4,124.9Z"></path>
  <polygon class="st3" points="754.7 230.3 419.7 230.3 419.7 198.2 754.6 198.2 754.7 230.3"></polygon>
  <path fill-rule="evenodd" class="st0" d="M172.6,128.3c4.7,26.5,49.3,21.4,68.4,13.7l9.7,27.8c-29.6,12.8-70,15.8-96.5-4-12-9-19.2-21.9-21.3-36.7-4.1-28.2,7.1-57.3,34.4-68.3s68.5-3.5,79.6,30c4,12,4.7,24.5,2.4,37.3h-76.8Z"></path>
  <path fill-rule="evenodd" class="st0" d="M476.4,142.2c10.3,2.4,20.2.5,30.7-2.4l11,31.5c-18.2,8-38.3,10.2-57.2,5.9-28.1-6.4-45.2-29.9-45.4-58-.2-30.2,18.7-55.7,49-61.4s37.1-1.3,54.6,6.5l-10.8,31.8c-10.4-2.7-20.8-4.8-31.3-2.9s-20.9,12.2-20.6,25c.2,12,7.6,21.7,20.2,24Z"></path>
  <path fill-rule="evenodd" class="st0" d="M714.7,175.9l-40.6.2V59.5s39.7,0,39.7,0c.5,5.8-.6,10.3,1.1,15.9,8.9-17.9,28.1-22.9,45.3-14.3l-9.7,35.7c-9.2-2.6-19.1-2.8-26.4,2.9-6.9,5.4-8.4,14.1-9.2,22.6l-.2,53.6Z"></path>
  <path style="fill:#fff" fill-rule="evenodd" class="st2" d="M612.5,117.7c0,14.8-9.7,25.8-23.4,26-14.3.2-24.1-11.4-24.2-25.6-.1-14.1,9.3-25.8,23.3-26.1,13.9-.3,24.3,10.8,24.3,25.7Z"></path>
  <path style="fill:#fff" fill-rule="evenodd" class="st4" d="M212.3,103.6h-40.4c.8-9,6.6-17,15.4-18.7s12.3-.6,17.5,3.3,7.3,8.6,7.6,15.4Z"></path>
</svg>